# xmcd
#
# Track frame offsets: 
#        150
#        13220
#        28797
#        42567
#        56157
#        70892
#        90187
#        107695
#        123800
#        135132
#        149032
#        160047
#        176205
#
# Disc length: 2507 seconds
#
# Revision: 0
# Processed by: cddbd v1.5.2PL0 Copyright (c) Steve Scherf et al.
# Submitted via: ExactAudioCopy v0.95b3
#
DISCID=b109c90d
DTITLE=Various Artist - Bluegrass: An American Tradition
DYEAR=2007
DGENRE=Bluegrass
TTITLE0=Various Artist - Foggy Mountain Breakdown
TTITLE1=Bobby Osborne and Jesse McReynolds - Bluegrass Express
TTITLE2=Eddie Adcock (feat. Ricky Skaggs and Buck White) - San Antonio R
TTITLE2=ose
TTITLE3=Eddie Adcock (feat. Mac Wiseman) - Crazy Blues
TTITLE4=Bill Emerson (feat. Tony Rice) - We'll Meet Again Sweetheart
TTITLE5=Bill Emerson (feat. Jimmy Martin) - It Takes One To Know One
TTITLE6=John Hartford - Over The Mountain
TTITLE7=Osborne Brothers - Ruby
TTITLE8=Chubby Wise - Cotton Eyed Joe
TTITLE9=Adcock+Baker+Graves+McReynolds - Wayfaring Stranger
TTITLE10=Eddie Adcock (feat. Jim and Jesse) - Pallet On Your Floor
TTITLE11=Charlie Waller - Dark As A Dungeon
TTITLE12=Bill Emerson (feat. Red Allen) - I Don't Know Why
EXTD=
EXTT0=
EXTT1=
EXTT2=
EXTT3=
EXTT4=
EXTT5=
EXTT6=
EXTT7=
EXTT8=
EXTT9=
EXTT10=
EXTT11=
EXTT12=
PLAYORDER=
